<mxfile host="Electron" modified="2024-11-09T15:34:54.373Z" agent="Mozilla/5.0 (Windows NT 10.0; Win64; x64) AppleWebKit/537.36 (KHTML, like Gecko) draw.io/22.0.3 Chrome/114.0.5735.289 Electron/25.8.4 Safari/537.36" etag="2XSBatnh12TqXiQ11zXT" version="22.0.3" type="device">
  <diagram name="第 1 页" id="GazHt6Jh14RGLyLrWZDe">
    <mxGraphModel dx="941" dy="644" grid="1" gridSize="10" guides="1" tooltips="1" connect="1" arrows="1" fold="1" page="1" pageScale="1" pageWidth="827" pageHeight="1169" math="0" shadow="0">
      <root>
        <mxCell id="0" />
        <mxCell id="1" parent="0" />
        <mxCell id="uwxqQ4Z8YwHhrDqcPyB0-19" value="&lt;p style=&quot;margin:0px;margin-top:4px;text-align:center;&quot;&gt;&lt;i&gt;&amp;lt;&amp;lt;control&amp;gt;&amp;gt;&lt;/i&gt;&lt;br&gt;&lt;b&gt;VideoManagementController&lt;/b&gt;&lt;/p&gt;&lt;hr size=&quot;1&quot;&gt;&lt;p style=&quot;margin:0px;margin-left:4px;&quot;&gt;&lt;span style=&quot;background-color: initial;&quot;&gt;+ uploadVideo(videoFile, actionName)&amp;nbsp;&lt;/span&gt;&lt;/p&gt;&lt;p style=&quot;margin:0px;margin-left:4px;&quot;&gt;+ deleteVideo(videoID)&lt;/p&gt;&lt;p style=&quot;margin:0px;margin-left:4px;&quot;&gt;+ reviewVideo(videoID)&amp;nbsp;&lt;/p&gt;" style="verticalAlign=top;align=left;overflow=fill;fontSize=12;fontFamily=Helvetica;html=1;whiteSpace=wrap;" parent="1" vertex="1">
          <mxGeometry x="290" y="420" width="220" height="100" as="geometry" />
        </mxCell>
        <mxCell id="uwxqQ4Z8YwHhrDqcPyB0-20" value="&lt;p style=&quot;margin:0px;margin-top:4px;text-align:center;&quot;&gt;&lt;i&gt;&amp;lt;&amp;lt;control&amp;gt;&amp;gt;&lt;br&gt;&lt;/i&gt;&lt;b&gt;AIAnalysisController&lt;/b&gt;&lt;/p&gt;&lt;hr size=&quot;1&quot;&gt;&lt;p style=&quot;margin:0px;margin-left:4px;&quot;&gt;&lt;span style=&quot;background-color: initial;&quot;&gt;+ analyzeVideo(videoID, actionName)&amp;nbsp;&lt;/span&gt;&lt;/p&gt;&lt;p style=&quot;margin:0px;margin-left:4px;&quot;&gt;+ sendResults(videoID, userId)&lt;/p&gt;&lt;p style=&quot;margin:0px;margin-left:4px;&quot;&gt;+ requestHistory(userID)&amp;nbsp;&lt;/p&gt;" style="verticalAlign=top;align=left;overflow=fill;fontSize=12;fontFamily=Helvetica;html=1;whiteSpace=wrap;" parent="1" vertex="1">
          <mxGeometry x="340" y="680" width="210" height="100" as="geometry" />
        </mxCell>
        <mxCell id="uwxqQ4Z8YwHhrDqcPyB0-21" value="&lt;p style=&quot;margin:0px;margin-top:4px;text-align:center;&quot;&gt;&lt;i&gt;&amp;lt;&amp;lt;control&amp;gt;&amp;gt;&lt;br&gt;&lt;/i&gt;&lt;b&gt;QwenAPIController&lt;/b&gt;&lt;/p&gt;&lt;hr size=&quot;1&quot;&gt;&lt;p style=&quot;margin:0px;margin-left:4px;&quot;&gt;&lt;span style=&quot;background-color: initial;&quot;&gt;+ callQwenVL(videoID, actionName)&amp;nbsp;&lt;/span&gt;&lt;/p&gt;&lt;p style=&quot;margin:0px;margin-left:4px;&quot;&gt;+ getResponse()&lt;/p&gt;" style="verticalAlign=top;align=left;overflow=fill;fontSize=12;fontFamily=Helvetica;html=1;whiteSpace=wrap;" parent="1" vertex="1">
          <mxGeometry x="660" y="685" width="210" height="90" as="geometry" />
        </mxCell>
        <mxCell id="uwxqQ4Z8YwHhrDqcPyB0-22" value="&lt;p style=&quot;margin:0px;margin-top:4px;text-align:center;&quot;&gt;&lt;i&gt;&amp;lt;&amp;lt;boundary&amp;gt;&amp;gt;&lt;/i&gt;&lt;br&gt;&lt;b&gt;VideoUploadPage&lt;/b&gt;&lt;/p&gt;&lt;hr size=&quot;1&quot;&gt;&lt;p style=&quot;margin:0px;margin-left:4px;&quot;&gt;+ videoFile&lt;br&gt;+ actionName&lt;/p&gt;&lt;hr size=&quot;1&quot;&gt;&lt;p style=&quot;margin:0px;margin-left:4px;&quot;&gt;+ submitActionVideo()&lt;br&gt;&lt;/p&gt;" style="verticalAlign=top;align=left;overflow=fill;fontSize=12;fontFamily=Helvetica;html=1;whiteSpace=wrap;" parent="1" vertex="1">
          <mxGeometry x="360" y="240" width="190" height="110" as="geometry" />
        </mxCell>
        <mxCell id="uwxqQ4Z8YwHhrDqcPyB0-23" value="&lt;p style=&quot;margin:0px;margin-top:4px;text-align:center;&quot;&gt;&lt;i&gt;&amp;lt;&amp;lt;boundary&amp;gt;&amp;gt;&lt;/i&gt;&lt;br&gt;&lt;b&gt;AnalysisResultsPage&lt;/b&gt;&lt;/p&gt;&lt;hr size=&quot;1&quot;&gt;&lt;p style=&quot;margin:0px;margin-left:4px;&quot;&gt;+ resultData&lt;br&gt;&lt;/p&gt;&lt;hr size=&quot;1&quot;&gt;&lt;p style=&quot;margin:0px;margin-left:4px;&quot;&gt;+ displayResults()&lt;br&gt;&lt;/p&gt;" style="verticalAlign=top;align=left;overflow=fill;fontSize=12;fontFamily=Helvetica;html=1;whiteSpace=wrap;" parent="1" vertex="1">
          <mxGeometry x="557" y="550" width="190" height="90" as="geometry" />
        </mxCell>
        <mxCell id="uwxqQ4Z8YwHhrDqcPyB0-24" value="&lt;p style=&quot;margin:0px;margin-top:4px;text-align:center;&quot;&gt;&lt;i&gt;&amp;lt;&amp;lt;boundary&amp;gt;&amp;gt;&lt;/i&gt;&lt;br&gt;&lt;b&gt;HistoricalResultsPage&lt;/b&gt;&lt;/p&gt;&lt;hr size=&quot;1&quot;&gt;&lt;p style=&quot;margin:0px;margin-left:4px;&quot;&gt;+ historyData&lt;br&gt;&lt;/p&gt;&lt;hr size=&quot;1&quot;&gt;&lt;p style=&quot;margin:0px;margin-left:4px;&quot;&gt;+ displayHistoryDataResults()&lt;br&gt;&lt;/p&gt;" style="verticalAlign=top;align=left;overflow=fill;fontSize=12;fontFamily=Helvetica;html=1;whiteSpace=wrap;" parent="1" vertex="1">
          <mxGeometry x="851" y="451" width="190" height="90" as="geometry" />
        </mxCell>
        <mxCell id="uwxqQ4Z8YwHhrDqcPyB0-25" value="&lt;p style=&quot;margin:0px;margin-top:4px;text-align:center;&quot;&gt;&lt;i&gt;&amp;lt;&amp;lt;entity&amp;gt;&amp;gt;&lt;/i&gt;&lt;br&gt;&lt;b&gt;Video&lt;/b&gt;&lt;/p&gt;&lt;hr size=&quot;1&quot;&gt;&lt;p style=&quot;margin:0px;margin-left:4px;&quot;&gt;+ videoID&lt;br&gt;&lt;/p&gt;&lt;p style=&quot;margin:0px;margin-left:4px;&quot;&gt;+ actionName&lt;/p&gt;&lt;p style=&quot;margin:0px;margin-left:4px;&quot;&gt;+ filePath&lt;/p&gt;&lt;p style=&quot;margin:0px;margin-left:4px;&quot;&gt;+ uploadTime&lt;/p&gt;&lt;hr size=&quot;1&quot;&gt;&lt;p style=&quot;margin:0px;margin-left:4px;&quot;&gt;+ getFilePath()&lt;br&gt;&lt;/p&gt;&lt;p style=&quot;margin:0px;margin-left:4px;&quot;&gt;+ getUploadTime()&lt;/p&gt;&lt;p style=&quot;margin:0px;margin-left:4px;&quot;&gt;+ downloadVideo()&lt;/p&gt;" style="verticalAlign=top;align=left;overflow=fill;fontSize=12;fontFamily=Helvetica;html=1;whiteSpace=wrap;" parent="1" vertex="1">
          <mxGeometry x="851" y="223" width="190" height="160" as="geometry" />
        </mxCell>
        <mxCell id="uwxqQ4Z8YwHhrDqcPyB0-26" value="&lt;p style=&quot;margin:0px;margin-top:4px;text-align:center;&quot;&gt;&lt;i&gt;&amp;lt;&amp;lt;entity&amp;gt;&amp;gt;&lt;/i&gt;&lt;br&gt;&lt;b&gt;AIAnalysisResult&lt;/b&gt;&lt;/p&gt;&lt;hr size=&quot;1&quot;&gt;&lt;p style=&quot;margin:0px;margin-left:4px;&quot;&gt;+ resultID&lt;br&gt;&lt;/p&gt;&lt;p style=&quot;margin:0px;margin-left:4px;&quot;&gt;+ videoID&lt;/p&gt;&lt;p style=&quot;margin:0px;margin-left:4px;&quot;&gt;+ analysisData&lt;/p&gt;&lt;p style=&quot;margin:0px;margin-left:4px;&quot;&gt;+ analysisTime&lt;/p&gt;&lt;hr size=&quot;1&quot;&gt;&lt;p style=&quot;margin:0px;margin-left:4px;&quot;&gt;+ getAnalysisData()&lt;br&gt;&lt;/p&gt;&lt;p style=&quot;margin:0px;margin-left:4px;&quot;&gt;+ getAnalysisTime()&lt;/p&gt;" style="verticalAlign=top;align=left;overflow=fill;fontSize=12;fontFamily=Helvetica;html=1;whiteSpace=wrap;" parent="1" vertex="1">
          <mxGeometry x="907" y="582" width="190" height="150" as="geometry" />
        </mxCell>
        <mxCell id="uwxqQ4Z8YwHhrDqcPyB0-27" value="&lt;p style=&quot;margin:0px;margin-top:4px;text-align:center;&quot;&gt;&lt;i&gt;&amp;lt;&amp;lt;entity&amp;gt;&amp;gt;&lt;/i&gt;&lt;br&gt;&lt;b&gt;User&lt;/b&gt;&lt;/p&gt;&lt;hr size=&quot;1&quot; style=&quot;border-style:solid;&quot;&gt;&lt;p style=&quot;margin: 0px 0px 0px 4px;&quot;&gt;&lt;span style=&quot;background-color: initial;&quot;&gt;+ userID: string&lt;/span&gt;&lt;/p&gt;&lt;p style=&quot;margin: 0px 0px 0px 4px;&quot;&gt;+ username: string&lt;/p&gt;&lt;p style=&quot;margin: 0px 0px 0px 4px;&quot;&gt;- password: string&lt;/p&gt;&lt;p style=&quot;margin: 0px 0px 0px 4px;&quot;&gt;- accountBalance: double&lt;/p&gt;&lt;p style=&quot;margin: 0px 0px 0px 4px;&quot;&gt;+ gender: string&lt;/p&gt;&lt;p style=&quot;margin: 0px 0px 0px 4px;&quot;&gt;+ UserType: string&lt;/p&gt;&lt;p style=&quot;margin: 0px 0px 0px 4px;&quot;&gt;+ rewards: double&lt;/p&gt;&lt;hr size=&quot;1&quot; style=&quot;border-style:solid;&quot;&gt;&lt;p style=&quot;margin:0px;margin-left:4px;&quot;&gt;+ register()&lt;br&gt;+ login(password: String)&lt;/p&gt;&lt;p style=&quot;margin:0px;margin-left:4px;&quot;&gt;+&amp;nbsp;uploadVideo(video: Video)&lt;/p&gt;&lt;p style=&quot;margin:0px;margin-left:4px;&quot;&gt;+&amp;nbsp;recordSuccess(video: Video)&lt;/p&gt;&lt;p style=&quot;margin:0px;margin-left:4px;&quot;&gt;+&amp;nbsp;retryAction(video: Video)&lt;/p&gt;" style="verticalAlign=top;align=left;overflow=fill;html=1;whiteSpace=wrap;" parent="1" vertex="1">
          <mxGeometry x="603" y="280" width="190" height="240" as="geometry" />
        </mxCell>
        <mxCell id="uwxqQ4Z8YwHhrDqcPyB0-28" value="" style="endArrow=open;html=1;rounded=0;exitX=0.5;exitY=1;exitDx=0;exitDy=0;entryX=0.75;entryY=0;entryDx=0;entryDy=0;endFill=0;strokeWidth=1;endSize=12;" parent="1" source="uwxqQ4Z8YwHhrDqcPyB0-22" target="uwxqQ4Z8YwHhrDqcPyB0-19" edge="1">
          <mxGeometry width="50" height="50" relative="1" as="geometry">
            <mxPoint x="840" y="380" as="sourcePoint" />
            <mxPoint x="500" y="490" as="targetPoint" />
          </mxGeometry>
        </mxCell>
        <mxCell id="uwxqQ4Z8YwHhrDqcPyB0-29" value="" style="endArrow=open;html=1;rounded=0;exitX=0.656;exitY=1.006;exitDx=0;exitDy=0;exitPerimeter=0;entryX=0.448;entryY=0;entryDx=0;entryDy=0;entryPerimeter=0;endFill=0;strokeWidth=1;endSize=12;" parent="1" source="uwxqQ4Z8YwHhrDqcPyB0-19" target="uwxqQ4Z8YwHhrDqcPyB0-20" edge="1">
          <mxGeometry width="50" height="50" relative="1" as="geometry">
            <mxPoint x="900" y="420" as="sourcePoint" />
            <mxPoint x="900" y="580" as="targetPoint" />
          </mxGeometry>
        </mxCell>
        <mxCell id="uwxqQ4Z8YwHhrDqcPyB0-30" value="" style="endArrow=open;html=1;rounded=0;entryX=0;entryY=0.5;entryDx=0;entryDy=0;endFill=0;strokeWidth=1;endSize=12;" parent="1" target="uwxqQ4Z8YwHhrDqcPyB0-21" edge="1">
          <mxGeometry width="50" height="50" relative="1" as="geometry">
            <mxPoint x="550" y="730" as="sourcePoint" />
            <mxPoint x="600" y="680" as="targetPoint" />
          </mxGeometry>
        </mxCell>
        <mxCell id="uwxqQ4Z8YwHhrDqcPyB0-31" value="" style="endArrow=open;endSize=12;dashed=1;html=1;rounded=0;exitX=0.5;exitY=0;exitDx=0;exitDy=0;entryX=0;entryY=0.25;entryDx=0;entryDy=0;" parent="1" source="uwxqQ4Z8YwHhrDqcPyB0-21" target="uwxqQ4Z8YwHhrDqcPyB0-26" edge="1">
          <mxGeometry width="160" relative="1" as="geometry">
            <mxPoint x="800" y="480" as="sourcePoint" />
            <mxPoint x="880" y="600" as="targetPoint" />
            <Array as="points">
              <mxPoint x="765" y="620" />
            </Array>
          </mxGeometry>
        </mxCell>
        <mxCell id="uwxqQ4Z8YwHhrDqcPyB0-32" value="" style="endArrow=open;html=1;rounded=0;exitX=0.437;exitY=1.01;exitDx=0;exitDy=0;entryX=1;entryY=0.25;entryDx=0;entryDy=0;exitPerimeter=0;endFill=0;strokeWidth=1;endSize=12;" parent="1" source="uwxqQ4Z8YwHhrDqcPyB0-23" target="uwxqQ4Z8YwHhrDqcPyB0-20" edge="1">
          <mxGeometry width="50" height="50" relative="1" as="geometry">
            <mxPoint x="740" y="560" as="sourcePoint" />
            <mxPoint x="790" y="510" as="targetPoint" />
            <Array as="points">
              <mxPoint x="640" y="705" />
            </Array>
          </mxGeometry>
        </mxCell>
        <mxCell id="uwxqQ4Z8YwHhrDqcPyB0-33" value="" style="endArrow=open;endSize=12;dashed=1;html=1;rounded=0;exitX=1.008;exitY=0.21;exitDx=0;exitDy=0;entryX=0;entryY=0.25;entryDx=0;entryDy=0;exitPerimeter=0;" parent="1" source="uwxqQ4Z8YwHhrDqcPyB0-22" target="uwxqQ4Z8YwHhrDqcPyB0-25" edge="1">
          <mxGeometry width="160" relative="1" as="geometry">
            <mxPoint x="775" y="695" as="sourcePoint" />
            <mxPoint x="917" y="630" as="targetPoint" />
            <Array as="points" />
          </mxGeometry>
        </mxCell>
        <mxCell id="uwxqQ4Z8YwHhrDqcPyB0-34" value="" style="endArrow=open;html=1;rounded=0;exitX=0;exitY=0.163;exitDx=0;exitDy=0;exitPerimeter=0;entryX=1.003;entryY=0.774;entryDx=0;entryDy=0;entryPerimeter=0;endFill=0;strokeWidth=1;endSize=12;" parent="1" source="uwxqQ4Z8YwHhrDqcPyB0-24" target="uwxqQ4Z8YwHhrDqcPyB0-27" edge="1">
          <mxGeometry width="50" height="50" relative="1" as="geometry">
            <mxPoint x="840.04" y="524.98" as="sourcePoint" />
            <mxPoint x="790" y="465.01" as="targetPoint" />
          </mxGeometry>
        </mxCell>
        <mxCell id="uwxqQ4Z8YwHhrDqcPyB0-35" value="" style="endArrow=open;endSize=12;dashed=1;html=1;rounded=0;exitX=1;exitY=0.5;exitDx=0;exitDy=0;entryX=-0.01;entryY=0.792;entryDx=0;entryDy=0;entryPerimeter=0;" parent="1" source="uwxqQ4Z8YwHhrDqcPyB0-19" target="uwxqQ4Z8YwHhrDqcPyB0-27" edge="1">
          <mxGeometry width="160" relative="1" as="geometry">
            <mxPoint x="562" y="273" as="sourcePoint" />
            <mxPoint x="861" y="273" as="targetPoint" />
            <Array as="points" />
          </mxGeometry>
        </mxCell>
        <mxCell id="uwxqQ4Z8YwHhrDqcPyB0-36" value="" style="endArrow=open;endSize=12;dashed=1;html=1;rounded=0;exitX=0.894;exitY=-0.026;exitDx=0;exitDy=0;exitPerimeter=0;entryX=-0.004;entryY=0.598;entryDx=0;entryDy=0;entryPerimeter=0;" parent="1" source="uwxqQ4Z8YwHhrDqcPyB0-20" target="uwxqQ4Z8YwHhrDqcPyB0-27" edge="1">
          <mxGeometry width="160" relative="1" as="geometry">
            <mxPoint x="440" y="620" as="sourcePoint" />
            <mxPoint x="528" y="400" as="targetPoint" />
            <Array as="points">
              <mxPoint x="528" y="424" />
            </Array>
          </mxGeometry>
        </mxCell>
      </root>
    </mxGraphModel>
  </diagram>
</mxfile>
